<?xml version="1.0" standalone="no"?>
<!DOCTYPE svg PUBLIC "-//W3C//DTD SVG 20010904//EN"
 "http://www.w3.org/TR/2001/REC-SVG-20010904/DTD/svg10.dtd">
<svg version="1.0" xmlns="http://www.w3.org/2000/svg"
 width="454.000000pt" height="252.000000pt" viewBox="0 0 454.000000 252.000000"
 preserveAspectRatio="xMidYMid meet">

<g transform="translate(0.000000,252.000000) scale(0.100000,-0.100000)"
fill="#000000" stroke="none">
<path d="M1529 2280 c-317 -42 -531 -112 -714 -233 -238 -157 -290 -329 -144
-476 60 -60 130 -111 221 -164 l78 -44 -50 -22 -50 -23 -72 48 c-204 136 -318
301 -291 421 l11 48 -28 -32 c-36 -41 -52 -96 -41 -145 21 -91 124 -214 269
-321 45 -34 82 -64 82 -67 0 -3 -20 -25 -44 -49 -44 -43 -45 -44 -70 -28 -43
29 -216 199 -261 258 -86 111 -145 246 -145 330 0 101 83 222 202 296 32 20
58 38 58 40 0 13 -126 -66 -174 -109 -149 -132 -179 -270 -96 -443 39 -82 114
-175 272 -340 l124 -130 -15 -47 c-9 -27 -19 -48 -22 -48 -7 0 -143 159 -196
230 -142 190 -233 379 -249 523 l-8 62 -12 -40 c-58 -187 99 -528 380 -823 64
-68 74 -83 80 -126 7 -48 7 -48 -14 -33 -56 39 -186 157 -238 216 -171 193
-263 370 -281 541 l-8 75 -2 -70 c-1 -91 19 -168 73 -280 67 -139 155 -253
347 -450 96 -99 190 -201 207 -226 44 -65 133 -143 198 -174 30 -14 89 -34
131 -43 213 -46 454 77 548 281 69 150 68 292 -5 443 -66 136 -197 238 -346
269 -147 31 -401 203 -457 310 -28 53 -28 136 1 190 80 155 371 313 687 373
286 55 304 64 64 32z m-289 -931 c56 -13 163 -65 186 -90 14 -15 4 -13 -48 10
-35 16 -107 42 -159 57 -52 14 -96 28 -98 30 -9 8 76 3 119 -7z m-55 -24 c28
-9 67 -20 88 -26 41 -11 45 -22 21 -73 -18 -37 -44 -48 -152 -62 -46 -6 -61
-3 -125 26 -40 18 -73 34 -74 35 -1 0 3 17 9 38 10 33 17 38 72 56 76 24 99
25 161 6z m-246 -68 c-25 -75 -215 -224 -246 -193 -13 12 40 98 92 152 28 28
75 65 105 82 63 36 72 29 49 -41z m625 -173 c32 -65 33 -80 4 -60 -13 9 -34
48 -50 93 l-28 78 24 -29 c13 -16 36 -53 50 -82z m-211 13 l69 -76 -21 -89
-22 -88 -96 -23 c-80 -20 -97 -21 -107 -10 -7 8 -37 42 -66 77 l-53 62 24 97
24 98 80 16 c44 9 84 16 89 15 6 -1 41 -37 79 -79z m-545 -281 c-21 -95 -21
-96 -54 -102 -19 -3 -41 -4 -49 0 -12 4 -14 0 -9 -19 9 -35 -2 -31 -15 5 -6
18 -6 28 -1 25 15 -9 12 1 -10 37 -15 26 -20 51 -20 112 0 72 3 84 31 128 22
34 40 50 63 56 l31 9 27 -78 26 -77 -20 -96z m766 190 c25 -20 30 -31 34 -83
4 -53 0 -67 -32 -134 -43 -86 -51 -95 -92 -103 -31 -7 -31 -7 -63 73 l-32 81
21 89 c20 83 24 90 49 94 62 10 87 6 115 -17z m-462 -136 l67 -79 -32 -93 -32
-93 -87 -16 -87 -15 -71 71 -72 72 17 85 c10 47 21 91 25 98 5 8 50 21 102 31
51 9 95 17 98 18 3 1 35 -35 72 -79z m424 -215 c11 -45 -69 -136 -177 -198
-75 -44 -102 -32 -75 35 16 38 158 172 191 181 42 10 55 7 61 -18z m-337 -91
c36 -14 70 -30 74 -34 13 -12 -14 -89 -32 -94 -107 -29 -175 -37 -221 -26 -27
6 -54 18 -61 26 -6 7 -15 11 -20 8 -10 -6 -73 25 -66 33 3 3 18 -1 34 -9 l28
-14 2 49 c0 26 4 51 7 54 8 9 117 31 155 32 19 1 64 -11 100 -25z"/>
<path d="M1192 2279 c-216 -28 -437 -132 -562 -265 -39 -41 -36 -40 65 27 172
114 358 182 623 229 l107 18 -85 0 c-47 0 -113 -4 -148 -9z"/>
<path d="M3225 2045 c-18 -18 -25 -35 -25 -65 0 -38 1 -40 31 -40 18 0 37 8
47 20 17 19 17 19 64 -1 62 -28 94 -20 114 26 8 19 14 46 14 60 0 21 -5 25
-31 25 -19 0 -37 -8 -48 -21 l-17 -21 -42 21 c-54 27 -77 27 -107 -4z"/>
<path d="M2205 1901 c-78 -20 -152 -78 -187 -146 -29 -56 -35 -158 -14 -222
22 -65 76 -127 140 -160 42 -22 65 -27 131 -27 68 -1 89 3 137 27 109 54 165
152 156 276 -8 109 -63 188 -162 232 -53 23 -152 33 -201 20z m145 -130 c52
-27 83 -92 77 -158 -9 -91 -56 -143 -136 -151 -36 -3 -53 1 -80 20 -59 40 -76
72 -76 143 0 49 5 70 21 92 52 70 126 91 194 54z"/>
<path d="M3835 1896 c-149 -47 -229 -190 -190 -340 37 -140 165 -228 310 -213
158 16 260 129 260 287 0 66 -5 83 -31 130 -68 120 -216 178 -349 136z m165
-129 c49 -32 73 -79 73 -142 0 -163 -188 -227 -268 -90 -85 144 64 321 195
232z"/>
<path d="M1470 1625 l0 -275 153 0 c185 0 240 13 287 67 30 34 32 40 28 95 -3
47 -10 64 -33 88 -16 16 -37 32 -47 36 -16 5 -14 8 14 28 63 42 70 132 14 185
-41 39 -106 51 -268 51 l-148 0 0 -275z m291 155 c23 -13 26 -62 3 -84 -11
-12 -35 -16 -85 -16 l-69 0 0 55 0 55 66 0 c36 0 74 -5 85 -10z m17 -216 c25
-17 29 -51 8 -79 -12 -16 -29 -20 -95 -23 l-81 -4 0 61 0 61 73 0 c49 0 80 -5
95 -16z"/>
<path d="M2650 1625 l0 -275 185 0 185 0 0 60 0 60 -115 0 -115 0 0 215 0 215
-70 0 -70 0 0 -275z"/>
<path d="M3251 1878 c-5 -13 -55 -131 -111 -263 -56 -132 -104 -246 -107 -253
-4 -10 11 -12 67 -10 l72 3 18 45 18 45 119 3 119 3 18 -51 18 -50 74 0 74 0
-13 33 c-7 17 -58 141 -113 274 l-99 243 -73 0 c-66 0 -73 -2 -81 -22z m118
-227 c18 -46 30 -85 28 -88 -3 -2 -36 -3 -75 -1 l-70 3 37 92 c20 51 39 89 42
85 4 -4 21 -45 38 -91z"/>
<path d="M2473 1196 c4 -9 1 -16 -6 -16 -10 0 -77 -72 -77 -83 0 -2 15 -3 33
-3 41 2 80 23 73 41 -3 8 0 17 6 21 7 4 8 3 4 -4 -4 -7 -4 -12 -1 -12 10 0 85
54 85 61 0 3 -28 7 -61 8 -52 2 -61 0 -56 -13z m-6 -62 c-3 -3 -12 -4 -19 -1
-8 3 -5 6 6 6 11 1 17 -2 13 -5z m-23 -23 c4 -5 -3 -7 -14 -4 -23 6 -26 13 -6
13 8 0 17 -4 20 -9z"/>
<path d="M2962 1042 c-12 -2 -21 -9 -20 -15 2 -7 -2 -12 -7 -12 -6 0 -9 3 -7
8 3 10 -6 9 -36 -7 -48 -25 -110 -105 -97 -125 3 -5 1 -11 -4 -13 -15 -5 -21
-58 -10 -79 7 -14 6 -17 -4 -13 -9 3 -13 -4 -13 -26 0 -22 4 -29 13 -26 10 4
11 1 4 -12 -5 -10 -8 -27 -6 -38 2 -10 4 -27 4 -37 1 -11 6 -15 13 -11 7 4 8
3 4 -4 -16 -25 71 -131 95 -116 7 4 10 3 6 -3 -4 -6 2 -13 13 -16 11 -3 18 -1
15 4 -3 4 7 2 22 -6 38 -20 92 -19 100 1 4 11 8 12 13 4 6 -9 18 -10 46 -3 39
9 39 9 40 58 1 28 0 45 -3 39 -2 -7 -13 -10 -23 -7 -11 3 -20 1 -20 -3 0 -5
-23 -10 -51 -11 -53 -3 -139 26 -139 46 0 6 -6 8 -12 6 -27 -10 -31 203 -6
251 11 20 14 35 7 43 -6 8 -6 8 3 1 7 -6 19 -2 36 10 14 11 31 20 38 20 8 0
14 4 14 10 0 5 8 6 18 3 15 -6 16 -5 2 13 -11 14 -11 16 0 7 11 -10 18 -9 34
5 21 17 21 17 2 -5 -20 -24 -22 -22 28 -37 7 -3 19 1 26 7 10 9 11 9 6 0 -4
-7 2 -16 12 -22 16 -8 20 -3 35 35 l16 45 -27 11 c-15 5 -43 11 -62 12 -19 0
-39 6 -43 11 -5 6 -7 1 -4 -12 3 -15 1 -20 -9 -16 -7 2 -11 10 -8 17 5 12 -15
15 -54 8z m118 -22 c0 -5 -2 -10 -4 -10 -3 0 -8 5 -11 10 -3 6 -1 10 4 10 6 0
11 -4 11 -10z m-212 -45 c-6 -14 -15 -25 -20 -25 -5 0 -1 11 8 25 9 14 18 25
20 25 2 0 -2 -11 -8 -25z m219 2 c-1 -5 -11 -11 -20 -13 -9 -1 -15 2 -11 7 3
5 10 6 16 3 8 -5 9 -1 5 10 -4 11 -3 15 4 11 5 -4 8 -12 6 -18z m-163 2 c-4
-8 1 -9 17 -5 20 6 21 5 7 -4 -10 -6 -22 -18 -28 -28 -9 -14 -10 -12 -4 8 6
23 6 24 -12 10 -18 -14 -18 -14 0 8 20 23 32 30 20 11z m-56 -434 c-3 -3 -9 2
-12 12 -6 14 -5 15 5 6 7 -7 10 -15 7 -18z m205 18 c-7 -2 -13 -9 -13 -14 0
-6 9 -5 21 2 16 8 24 8 33 -2 8 -9 8 -10 -1 -5 -16 9 -17 -6 -3 -20 7 -7 6
-11 -4 -11 -8 0 -14 5 -13 10 1 5 -4 12 -12 15 -9 3 -11 0 -6 -7 5 -9 1 -9
-13 0 -16 10 -18 16 -10 26 6 7 16 13 22 12 7 0 6 -2 -1 -6z"/>
<path d="M1830 764 l0 -275 48 3 47 3 3 108 3 107 87 0 c58 0 82 3 72 10 -8 5
-12 12 -8 15 3 3 12 -1 20 -9 13 -12 15 -9 16 30 l2 44 -95 0 -95 0 -1 28 c0
15 -1 52 -2 82 -2 53 10 79 38 79 6 0 2 -4 -7 -10 -21 -12 -24 -29 -5 -29 8 0
19 10 26 23 l11 22 -6 -23 c-6 -23 -5 -23 66 -20 70 3 95 13 70 28 -9 5 -9 9
-1 14 6 4 11 12 11 17 0 6 -4 8 -9 4 -5 -3 -13 0 -17 6 -4 7 -3 9 4 5 6 -3 13
-2 17 4 4 7 -45 10 -144 10 l-151 0 0 -276z m116 -17 c0 -13 -6 -24 -13 -24
-8 0 -8 7 0 24 13 29 15 29 13 0z m64 -11 c0 -2 -7 -7 -16 -10 -8 -3 -12 -2
-9 4 6 10 25 14 25 6z"/>
<path d="M2374 1026 c-3 -8 -7 -20 -8 -28 -1 -7 -9 -29 -18 -48 -29 -68 -49
-140 -42 -151 4 -8 3 -9 -4 -5 -11 7 -16 -7 -15 -41 1 -7 -3 -11 -7 -8 -6 4
-58 -141 -64 -177 -1 -7 -5 -19 -9 -25 -5 -7 -5 -18 -1 -25 4 -7 3 -8 -4 -4
-7 4 -12 1 -12 -8 0 -11 13 -15 55 -15 45 0 55 4 60 20 4 10 3 23 0 29 -3 5
-2 10 3 10 5 0 14 18 20 39 l12 39 66 1 c69 1 88 6 79 22 -4 5 -2 9 4 9 10 0
10 18 -2 37 -6 10 -2 11 32 4 2 -1 -1 -7 -6 -13 -5 -7 -9 -22 -9 -33 1 -15 8
-20 28 -19 15 1 25 -3 22 -7 -3 -5 -2 -15 3 -21 4 -7 8 -19 9 -26 2 -8 6 -21
10 -30 7 -17 10 -27 12 -49 1 -8 21 -12 58 -12 47 1 54 3 49 18 -4 9 -10 24
-12 33 -3 10 -9 15 -14 12 -5 -3 -9 0 -9 6 0 6 -6 8 -12 5 -7 -4 -5 0 4 8 10
8 15 16 13 19 -3 3 -7 14 -10 24 -5 24 -45 136 -53 149 -4 6 -7 15 -8 21 -7
45 -50 154 -62 154 -7 0 -10 -5 -6 -12 4 -7 3 -8 -5 -4 -6 4 -9 11 -6 16 3 5
-5 16 -17 24 -12 9 -18 16 -12 16 5 0 15 -5 21 -11 6 -6 13 -7 16 -2 9 14 -4
54 -14 47 -5 -3 -6 2 -3 10 5 14 -4 16 -60 16 -48 0 -68 -4 -72 -14z m21 -16
c-3 -5 -1 -10 6 -10 7 0 10 -3 6 -6 -9 -9 -28 6 -22 17 4 5 8 9 11 9 3 0 2 -4
-1 -10z m89 -5 c-5 -11 -11 -12 -25 -4 -26 13 -24 19 6 19 17 0 23 -4 19 -15z
m-94 -29 c0 -2 -8 -10 -17 -17 -16 -13 -17 -12 -4 4 13 16 21 21 21 13z m86
-103 c3 -18 10 -33 16 -33 5 0 6 -5 3 -10 -4 -6 -2 -16 3 -23 6 -7 10 -15 10
-20 0 -4 4 -21 7 -38 7 -30 7 -30 28 -12 11 10 17 13 14 6 -4 -6 -1 -14 5 -17
7 -3 6 -4 -4 -3 -9 1 -17 -2 -17 -8 -1 -5 3 -10 8 -10 5 0 12 -3 16 -7 4 -3 0
-5 -9 -4 -9 1 -22 8 -28 14 -7 7 -41 12 -81 12 -65 0 -68 -1 -62 -21 6 -19 5
-20 -8 -8 -15 14 -15 38 -1 61 4 7 3 8 -4 4 -8 -5 -10 -2 -6 8 3 9 10 16 16
16 5 0 8 6 7 13 -1 6 3 25 9 40 7 16 9 33 6 39 -4 7 -2 8 4 4 8 -5 12 0 12 13
0 11 5 32 11 48 l11 28 14 -30 c7 -16 16 -45 20 -62z m100 -83 c0 -17 -4 -26
-10 -20 -12 12 -37 1 -29 -14 3 -6 2 -7 -2 -3 -16 14 -13 34 4 33 9 0 15 5 13
12 -1 8 2 11 8 7 5 -3 10 -1 10 4 0 6 2 11 4 11 2 0 3 -13 2 -30z m-230 -65
c1 -9 -2 -12 -9 -8 -6 4 -8 0 -5 -9 8 -19 -7 -45 -16 -29 -4 6 -2 11 4 11 6 0
8 5 5 10 -4 6 -12 8 -18 4 -7 -3 -3 2 8 11 11 9 19 22 17 28 -2 7 0 8 4 4 4
-4 9 -14 10 -22z m250 -5 c0 -12 -4 -16 -9 -11 -5 5 -6 14 -3 20 10 15 12 14
12 -9z m-296 6 c0 -2 -7 -7 -16 -10 -8 -3 -12 -2 -9 4 6 10 25 14 25 6z m50
-76 c0 -4 -6 -13 -14 -20 -12 -9 -15 -8 -13 8 1 17 27 28 27 12z m260 -74 c14
-18 14 -18 -7 -6 -12 8 -19 18 -16 23 3 4 6 7 7 5 1 -2 8 -12 16 -22z"/>
<path d="M3280 765 l0 -275 50 0 50 0 0 253 c0 189 -3 256 -12 266 -10 11 -10
13 0 7 7 -4 12 -1 12 8 0 12 -11 16 -50 16 l-50 0 0 -275z"/>
<path d="M3542 768 l3 -273 150 -3 c171 -3 186 0 161 27 -13 14 -14 21 -5 27
8 5 10 3 4 -7 -5 -8 -4 -10 0 -6 18 15 13 37 -9 43 -13 3 -65 4 -117 2 l-94
-3 3 233 3 232 -51 0 -50 0 2 -272z m88 252 c0 -5 -4 -10 -10 -10 -5 0 -10 5
-10 10 0 6 5 10 10 10 6 0 10 -4 10 -10z m-42 -503 c8 -10 6 -13 -11 -14 -12
0 -16 1 -9 4 6 3 10 9 6 14 -8 14 2 11 14 -4z"/>
<path d="M1414 238 l3 -23 971 -3 c938 -2 972 -1 972 16 0 18 -30 19 -727 25
-401 4 -839 7 -975 7 l-248 0 4 -22z"/>
</g>
</svg>
